<svg width="50" height="20" xmlns="http://www.w3.org/2000/svg">
    <g fill="#000" fill-rule="evenodd">
        <path d="M7.515 2.8C3.365 2.8 0 5.445 0 8.707c0 1.938 1.187 3.657 3.021 4.734-.191.768-.684 2.742-.75 2.957-.083.266-.103 1.046.702.512.634-.42 2.479-1.7 3.57-2.348.318.033.642.051.972.051 4.15 0 7.515-2.644 7.515-5.906 0-3.262-3.365-5.907-7.515-5.907M21.048 4.113c1.517-1.313 3.468-1.508 4.893-.585 1.707 1.106 2.168 2.754 2.168 4.892 0 2.4-1.115 3.968-1.642 4.46-.526.493-1.673 1.292-2.88 1.292H21.42v3.784h-2.911V3.282h2.106s.26.548.433.83zm1.951 1.153c-.697 0-1.153.177-1.533.477v6.306h1.138c.558 0 2.547-.507 2.547-3.383 0-.677-.09-1.385-.278-1.9-.357-.977-1.247-1.5-1.874-1.5zM33.817 3.046c2.085 0 2.942.718 3.448 1.354.481.604.862 1.497.862 2.8v6.68h-2.26v-.954s-.442.42-1.379.831c-.98.43-2.653.877-4.041-.184-1.397-1.068-1.2-3.471-.852-4.154.48-.938 1.363-1.968 3.716-1.968h2.029v-.908c0-.554-.583-1.107-1.73-1.107-1.28 0-1.833.192-2.817.635l-.996-1.943s1.496-1.082 4.02-1.082zm1.477 6.25h-1.415c-.599 0-1.961.216-1.961 1.477 0 1.283 1.09 1.26 1.448 1.23 1.089-.091 1.938-.794 1.938-.794l-.01-1.913zM47.061 3.046l-2.291 8.111-2.54-8.11-2.849.82s3.5 9.383 3.624 9.783c.123.4-.005.858-.28 1.322-.371.63-1.826 2.03-1.826 2.03l1.878 1.663s.857-.688 1.745-1.755c.743-.892 1.636-2.83 1.938-3.577.859-2.119 3.42-9.466 3.42-9.466l-2.819-.82z"/>
    </g>
</svg>
